<svg xmlns="http://www.w3.org/2000/svg" xmlns:xlink="http://www.w3.org/1999/xlink" preserveAspectRatio="xMidYMid" width="300" height="250" viewBox="0 0 1890 2126">
  <defs>
    <style type="text/css">
      .cls-1, .cls-2 {
        stroke: #000;
        stroke-width: 10px;
        fill: none;
        stroke-miterlimit: 5;
        stroke-dasharray: 3000;
        stroke-dashoffset: 0;
        -webkit-animation: dash 10s linear forwards;
        -o-animation: dash 10s linear forwards;
        animation: dash 4s linear forwards;
      }

      @-webkit-keyframes dash {
        from {
          stroke-dashoffset: 3000;
        }
        to {
          stroke-dashoffset: 0;
        }
      }

      .cls-2 {
        fill-rule: evenodd;
      }
    </style>
  </defs>
  <rect x="231" y="1018" width="1371" height="23" rx="10" ry="10" class="cls-1"/>
  <path d="M404.000,1018.500 L403.000,1018.000 L1425.000,1017.000 L1426.000,1017.500 C1426.000,1017.500 1372.950,919.924 1295.000,920.000 C1096.983,920.194 720.934,921.809 526.000,922.000 C450.918,922.073 404.000,1018.500 404.000,1018.500 Z" class="cls-2"/>
  <path d="M576.002,923.500 L575.998,922.500 L1227.998,920.500 L1228.002,921.500 C1228.002,921.500 1126.905,720.909 896.000,728.000 C674.103,734.814 576.002,923.500 576.002,923.500 Z" class="cls-2"/>
  <path d="M406.000,1042.000 L406.000,1041.000 L1430.000,1041.000 L1430.000,1042.000 C1429.824,1044.966 1245.876,1359.772 892.017,1362.698 C550.850,1365.519 406.000,1042.000 406.000,1042.000 Z" class="cls-2"/>
</svg>
